<svg version="1.1" viewBox="0.0 0.0 347.6482939632546 112.16272965879266" fill="none" stroke="none" stroke-linecap="square" stroke-miterlimit="10" xmlns:xlink="http://www.w3.org/1999/xlink" xmlns="http://www.w3.org/2000/svg"><clipPath id="p.0"><path d="m0 0l347.6483 0l0 112.16273l-347.6483 0l0 -112.16273z" clip-rule="nonzero"/></clipPath><g clip-path="url(#p.0)"><path fill="#000000" fill-opacity="0.0" d="m0 0l347.6483 0l0 112.16273l-347.6483 0z" fill-rule="evenodd"/><path fill="#000000" fill-opacity="0.0" d="m3.7454069 18.91601l340.1575 0l0 74.33071l-340.1575 0z" fill-rule="evenodd"/><path fill="#f3f3f3" d="m23.073532 71.436005l0 -25.749996l-10.140625 0l0 -5.984375l27.640625 0l0 5.984375l-10.15625 0l0 25.749996l-7.34375 0zm21.450287 0l0 -31.734371l7.34375 0l0 31.734371l-7.34375 0zm14.86763 0l0 -31.734371l15.5 0q5.984375 0 9.0 2.265625q3.015625 2.265625 3.015625 5.984375q0 2.5 -1.234375 4.34375q-1.21875 1.828125 -3.359375 2.828125q-2.125 0.984375 -4.890625 0.984375l0.875 -1.84375q2.984375 0 5.296875 0.96875q2.3125 0.96875 3.59375 2.875q1.296875 1.90625 1.296875 4.671875q0 4.078121 -3.21875 6.374996q-3.21875 2.28125 -9.46875 2.28125l-16.40625 0zm7.296875 -5.53125l8.5625 0q2.859375 0 4.328125 -0.921875q1.46875 -0.9375 1.46875 -2.9687462q0 -2.0 -1.46875 -2.96875q-1.46875 -0.984375 -4.328125 -0.984375l-9.109375 0l0 -5.34375l7.84375 0q2.671875 0 4.09375 -0.921875q1.4375 -0.9375 1.4375 -2.84375q0 -1.859375 -1.4375 -2.78125q-1.421875 -0.9375 -4.09375 -0.9375l-7.296875 0l0 20.671871zm27.37915 5.53125l0 -31.734371l7.34375 0l0 31.734371l-7.34375 0z" fill-rule="nonzero"/><path fill="#f3f3f3" d="m123.528595 71.436005l0 -31.734371l1.953125 0l14.71875 25.437496l-1.03125 0l14.6875 -25.437496l1.90625 0l0.03125 31.734371l-2.265625 0l-0.046875 -28.234371l0.640625 0l-13.921875 24.015621l-1.125 0l-13.96875 -24.015621l0.6875 0l0 28.234371l-2.265625 0zm45.36496 -17.140621l17.1875 0l0 2.046875l-17.1875 0l0 -2.046875zm0.28125 15.062496l19.578125 0l0 2.078125l-21.890625 0l0 -31.734371l21.21875 0l0 2.09375l-18.90625 0l0 27.562496zm28.012024 2.078125l0 -31.734371l12.546875 0q5.046875 0 8.84375 2.046875q3.8125 2.03125 5.921875 5.625q2.109375 3.578125 2.109375 8.203125q0 4.625 -2.109375 8.203125q-2.109375 3.5781212 -5.921875 5.624996q-3.796875 2.03125 -8.84375 2.03125l-12.546875 0zm2.3125 -2.078125l10.0625 0q4.484375 0 7.796875 -1.765625q3.3125 -1.78125 5.125 -4.874996q1.8125 -3.109375 1.8125 -7.140625q0 -4.046875 -1.8125 -7.140625q-1.8125 -3.109375 -5.125 -4.875q-3.3125 -1.765625 -7.796875 -1.765625l-10.0625 0l0 27.562496zm35.12854 2.078125l0 -31.734371l2.3125 0l0 31.734371l-2.3125 0zm26.79367 0.234375q-3.546875 0 -6.5625 -1.203125q-3.0 -1.203125 -5.234375 -3.375q-2.21875 -2.1875 -3.4375 -5.109371q-1.21875 -2.921875 -1.21875 -6.40625q0 -3.5 1.21875 -6.421875q1.21875 -2.921875 3.453125 -5.09375q2.25 -2.171875 5.234375 -3.375q3.0 -1.203125 6.546875 -1.203125q3.34375 0 6.265625 1.09375q2.9375 1.078125 5.015625 3.296875l-1.453125 1.5q-2.03125 -2.0 -4.515625 -2.875q-2.46875 -0.890625 -5.234375 -0.890625q-3.03125 0 -5.640625 1.046875q-2.609375 1.046875 -4.53125 2.953125q-1.921875 1.890625 -2.984375 4.4375q-1.0625 2.53125 -1.0625 5.53125q0 2.984375 1.0625 5.53125q1.0625 2.53125 2.984375 4.437496q1.921875 1.90625 4.53125 2.953125q2.609375 1.03125 5.640625 1.03125q2.765625 0 5.234375 -0.875q2.484375 -0.890625 4.515625 -2.9375l1.453125 1.5q-2.078125 2.21875 -5.015625 3.34375q-2.921875 1.109375 -6.265625 1.109375zm12.874878 -0.234375l14.59375 -31.734371l2.3125 0l14.59375 31.734371l-2.5 0l-13.78125 -30.281246l1.0 0l-13.734375 30.281246l-2.484375 0zm5.34375 -8.921871l0.765625 -1.953125l19.0 0l0.765625 1.953125l-20.53125 0zm31.909454 8.921871l0 -31.734371l2.3125 0l0 29.656246l18.265625 0l0 2.078125l-20.578125 0z" fill-rule="nonzero"/></g></svg>