<svg version="1.1" viewBox="0.0 0.0 1246.8241469816273 217.83989501312337" fill="none" stroke="none" stroke-linecap="square" stroke-miterlimit="10" xmlns:xlink="http://www.w3.org/1999/xlink" xmlns="http://www.w3.org/2000/svg"><clipPath id="p.0"><path d="m0 0l1246.8241 0l0 217.83989l-1246.8241 0l0 -217.83989z" clip-rule="nonzero"/></clipPath><g clip-path="url(#p.0)"><path fill="#000000" fill-opacity="0.0" d="m0 0l1246.8241 0l0 217.83989l-1246.8241 0z" fill-rule="evenodd"/><path fill="#000000" fill-opacity="0.0" d="m8.698163 22.543306l1231.0552 0l0 174.51968l-1231.0552 0z" fill-rule="evenodd"/><path fill="#666666" d="m71.198166 155.70456q-10.234379 0 -19.000004 -3.390625q-8.765625 -3.390625 -15.234375 -9.59375q-6.46875 -6.21875 -10.0625 -14.65625q-3.578125 -8.453125 -3.578125 -18.4375q0 -9.984375 3.578125 -18.4375q3.59375 -8.453125 10.125 -14.65625q6.53125 -6.203125 15.234375 -9.59375q8.703125 -3.3906212 19.062504 -3.3906212q11.015625 0 20.09375 3.7812462q9.09375 3.765625 15.375 11.1875l-10.75 10.109375q-4.875 -5.25 -10.890625 -7.859375q-6.015625 -2.625 -13.046875 -2.625q-7.046875 0 -12.875004 2.296875q-5.8125 2.296875 -10.109375 6.53125q-4.28125 4.21875 -6.65625 9.984375q-2.359375 5.75 -2.359375 12.671875q0 6.90625 2.359375 12.671875q2.375 5.75 6.65625 9.984375q4.296875 4.21875 10.109375 6.53125q5.828129 2.296875 12.875004 2.296875q7.03125 0 13.046875 -2.625q6.015625 -2.625 10.890625 -8.0l10.75 10.234375q-6.28125 7.296875 -15.375 11.140625q-9.078125 3.84375 -20.21875 3.84375zm91.65164 0q-10.5 0 -19.328125 -3.453125q-8.828125 -3.453125 -15.359375 -9.65625q-6.53125 -6.21875 -10.125 -14.59375q-3.578125 -8.390625 -3.578125 -18.375q0 -9.984375 3.578125 -18.359375q3.59375 -8.390625 10.125 -14.59375q6.53125 -6.21875 15.359375 -9.671875q8.828125 -3.4531212 19.203125 -3.4531212q10.5 0 19.265625 3.4531212q8.765625 3.453125 15.28125 9.671875q6.53125 6.203125 10.109375 14.59375q3.59375 8.375 3.59375 18.359375q0 9.984375 -3.59375 18.4375q-3.578125 8.4375 -10.109375 14.59375q-6.515625 6.140625 -15.28125 9.59375q-8.765625 3.453125 -19.140625 3.453125zm-0.125 -14.59375q6.78125 0 12.53125 -2.296875q5.765625 -2.3125 9.984375 -6.59375q4.234375 -4.296875 6.59375 -9.984375q2.375 -5.703125 2.375 -12.609375q0 -6.921875 -2.375 -12.609375q-2.359375 -5.703125 -6.59375 -9.984375q-4.21875 -4.296875 -9.984375 -6.59375q-5.75 -2.296875 -12.53125 -2.296875q-6.78125 0 -12.484375 2.296875q-5.6875 2.296875 -9.984375 6.59375q-4.28125 4.28125 -6.65625 9.984375q-2.359375 5.6875 -2.359375 12.609375q0 6.78125 2.359375 12.546875q2.375 5.75 6.59375 10.046875q4.21875 4.28125 9.984375 6.59375q5.765625 2.296875 12.546875 2.296875zm65.91664 13.3125l0 -89.59375l36.859375 0q11.90625 0 20.421875 3.84375q8.515625 3.828125 13.125 11.0q4.609375 7.171875 4.609375 17.015625q0 9.859375 -4.609375 16.96875q-4.609375 7.109375 -13.125 10.890625q-8.515625 3.765625 -20.421875 3.765625l-27.640625 0l7.421875 -7.546875l0 33.65625l-16.640625 0zm58.625 0l-22.65625 -32.515625l17.796875 0l22.78125 32.515625l-17.921875 0zm-41.984375 -31.875l-7.421875 -7.9375l26.875 0q11.015625 0 16.578125 -4.734375q5.5625 -4.734375 5.5625 -13.1875q0 -8.5625 -5.5625 -13.171875q-5.5625 -4.609375 -16.578125 -4.609375l-26.875 0l7.421875 -8.203125l0 51.84375zm92.28674 -20.484375l44.546875 0l0 13.703125l-44.546875 0l0 -13.703125zm1.28125 38.40625l50.5625 0l0 13.953125l-67.203125 0l0 -89.59375l65.40625 0l0 13.953125l-48.765625 0l0 61.6875zm96.900635 15.234375q-10.5 0 -20.109375 -3.0q-9.59375 -3.015625 -15.21875 -7.75l5.75 -12.9375q5.375 4.234375 13.3125 7.046875q7.9375 2.8125 16.265625 2.8125q7.03125 0 11.375 -1.53125q4.359375 -1.53125 6.40625 -4.15625q2.046875 -2.625 2.046875 -5.953125q0 -4.09375 -2.9375 -6.59375q-2.9375 -2.5 -7.609375 -3.96875q-4.671875 -1.46875 -10.375 -2.75q-5.6875 -1.28125 -11.390625 -3.0q-5.703125 -1.734375 -10.375 -4.484375q-4.671875 -2.765625 -7.609375 -7.359375q-2.9375 -4.609375 -2.9375 -11.78125q0 -7.296875 3.890625 -13.375q3.90625 -6.078125 11.90625 -9.71875q8.0 -3.6562462 20.296875 -3.6562462q8.0625 0 16.0 2.0468712q7.9375 2.046875 13.8125 5.890625l-5.234375 12.921875q-6.015625 -3.578125 -12.421875 -5.3125q-6.40625 -1.734375 -12.28125 -1.734375q-6.921875 0 -11.21875 1.671875q-4.28125 1.65625 -6.265625 4.34375q-1.984375 2.6875 -1.984375 6.15625q0 4.09375 2.875 6.59375q2.890625 2.484375 7.5625 3.90625q4.671875 1.40625 10.421875 2.75q5.765625 1.34375 11.453125 3.015625q5.703125 1.65625 10.375 4.34375q4.671875 2.6875 7.546875 7.296875q2.890625 4.59375 2.890625 11.640625q0 7.171875 -3.90625 13.25q-3.90625 6.078125 -11.96875 9.734375q-8.0625 3.640625 -20.34375 3.640625zm69.62262 -1.28125l0 -75.515625l-29.6875 0l0 -14.078125l76.03128 0l0 14.078125l-29.703125 0l0 75.515625l-16.640656 0zm58.884186 0l0 -89.59375l16.640625 0l0 89.59375l-16.640625 0zm29.957031 0l37.75 -51.96875l0 12.546875l-35.96875 -50.171875l18.828125 0l26.75 37.109375l-7.6875 0.125l26.5 -37.234375l18.046875 0l-35.71875 49.28125l0 -12.046875l38.03125 52.359375l-19.203125 0l-28.171875 -39.421875l7.5625 0l-27.78125 39.421875l-18.9375 0z" fill-rule="nonzero"/><path fill="#666666" d="m731.684 154.42331l0 -89.59375l7.8125 0l40.953125 69.875l-4.09375 0l40.578125 -69.875l7.796875 0l0 89.59375l-9.078125 0l0 -75.390625l2.171875 0l-37.375 64.0l-4.484375 0l-37.625 -64.0l2.4375 0l0 75.390625l-9.09375 0zm148.86499 0.640625q-10.5 0 -18.4375 -4.40625q-7.9375 -4.421875 -12.421875 -12.171875q-4.46875 -7.75 -4.46875 -17.71875q0 -9.984375 4.28125 -17.671875q4.296875 -7.6875 11.78125 -12.09375q7.484375 -4.421875 16.828125 -4.421875q9.46875 0 16.828125 4.296875q7.359375 4.28125 11.578125 12.03125q4.234375 7.734375 4.234375 17.859375q0 0.625 -0.0625 1.34375q-0.0625 0.703125 -0.0625 1.46875l-58.5 0l0 -6.78125l53.640625 0l-3.59375 2.6875q0 -7.296875 -3.140625 -12.984375q-3.125 -5.703125 -8.5 -8.90625q-5.375 -3.203125 -12.421875 -3.203125q-6.90625 0 -12.421875 3.203125q-5.5 3.203125 -8.578125 8.96875q-3.0625 5.75 -3.0625 13.171875l0 1.40625q0 7.6875 3.390625 13.515625q3.390625 5.8125 9.46875 9.078125q6.078125 3.265625 13.890625 3.265625q6.140625 0 11.453125 -2.171875q5.3125 -2.1875 9.15625 -6.65625l5.125 5.875q-4.484375 5.390625 -11.203125 8.203125q-6.71875 2.8125 -14.78125 2.8125zm75.51514 0q-9.59375 0 -17.21875 -4.34375q-7.609375 -4.359375 -11.96875 -12.09375q-4.34375 -7.75 -4.34375 -17.859375q0 -10.25 4.34375 -17.921875q4.359375 -7.6875 11.96875 -11.96875q7.625 -4.296875 17.21875 -4.296875q8.828125 0 15.796875 3.96875q6.984375 3.96875 11.140625 11.59375q4.171875 7.609375 4.171875 18.625q0 10.875 -4.09375 18.5625q-4.09375 7.671875 -11.078125 11.703125q-6.96875 4.03125 -15.9375 4.03125zm0.640625 -8.0625q7.171875 0 12.859375 -3.265625q5.703125 -3.265625 8.96875 -9.21875q3.265625 -5.953125 3.265625 -13.75q0 -7.9375 -3.265625 -13.828125q-3.265625 -5.890625 -8.96875 -9.15625q-5.6875 -3.265625 -12.859375 -3.265625q-7.03125 0 -12.671875 3.265625q-5.625 3.265625 -8.953125 9.15625q-3.328125 5.890625 -3.328125 13.828125q0 7.796875 3.328125 13.75q3.328125 5.953125 8.953125 9.21875q5.640625 3.265625 12.671875 3.265625zm25.34375 7.421875l0 -20.21875l0.890625 -13.578125l-1.265625 -13.5625l0 -47.60937l9.078125 0l0 94.96875l-8.703125 0zm34.049683 0l0 -67.203125l9.093689 0l0 67.203125l-9.093689 0zm4.609375 -82.046875q-2.828125 0 -4.75 -1.921875q-1.90625 -1.921875 -1.90625 -4.609375q0 -2.6874962 1.90625 -4.531246q1.921875 -1.859375 4.75 -1.859375q2.8125 0 4.734314 1.796875q1.921875 1.78125 1.921875 4.468746q0 2.8125 -1.859375 4.734375q-1.859314 1.921875 -4.796814 1.921875zm57.72882 82.6875q-9.984375 0 -17.859375 -4.40625q-7.875 -4.421875 -12.359375 -12.171875q-4.46875 -7.75 -4.46875 -17.71875q0 -10.125 4.46875 -17.796875q4.484375 -7.6875 12.359375 -12.03125q7.875 -4.359375 17.859375 -4.359375q8.578125 0 15.484375 3.328125q6.90625 3.328125 10.875 9.984375l-6.78125 4.609375q-3.453125 -5.125 -8.578125 -7.546875q-5.109375 -2.4375 -11.125 -2.4375q-7.171875 0 -12.9375 3.265625q-5.75 3.265625 -9.078125 9.15625q-3.328125 5.890625 -3.328125 13.828125q0 7.921875 3.328125 13.8125q3.328125 5.890625 9.078125 9.15625q5.765625 3.265625 12.9375 3.265625q6.015625 0 11.125 -2.421875q5.125 -2.4375 8.578125 -7.4375l6.78125 4.609375q-3.96875 6.53125 -10.875 9.921875q-6.90625 3.390625 -15.484375 3.390625zm86.26709 -0.640625l0 -14.84375l-0.375 -2.4375l0 -24.828125q0 -8.578125 -4.8125 -13.1875q-4.796875 -4.609375 -14.265625 -4.609375q-6.53125 0 -12.421875 2.1875q-5.875 2.171875 -9.984375 5.75l-4.09375 -6.78125q5.125 -4.359375 12.28125 -6.71875q7.171875 -2.375 15.109375 -2.375q13.0625 0 20.15625 6.46875q7.109375 6.46875 7.109375 19.640625l0 41.734375l-8.703125 0zm-23.171875 0.640625q-7.546875 0 -13.125 -2.5q-5.5625 -2.5 -8.5 -6.90625q-2.9375 -4.421875 -2.9375 -10.171875q0 -5.25 2.484375 -9.53125q2.5 -4.296875 8.1875 -6.921875q5.703125 -2.625 15.3125 -2.625l23.15625 0l0 6.78125l-22.90625 0q-9.734375 0 -13.515625 3.46875q-3.765625 3.453125 -3.765625 8.5625q0 5.765625 4.46875 9.21875q4.484375 3.453125 12.5625 3.453125q7.671875 0 13.234375 -3.515625q5.578125 -3.515625 8.140625 -10.171875l2.046875 6.265625q-2.5625 6.65625 -8.90625 10.625q-6.328125 3.96875 -15.9375 3.96875zm56.58252 -0.640625l0 -94.96875l9.09375 0l0 94.96875l-9.09375 0z" fill-rule="nonzero"/></g></svg>